<svg width="108" height="108" viewBox="0 0 108 108" fill="none" xmlns="http://www.w3.org/2000/svg">
<path d="M2.43 0.000157794C2.16324 -0.0106422 1.08216 0.534757 0 1.08016V10.9017C53.622 10.9017 97.0973 54.3792 97.0973 108H106.92C107.464 106.922 108.006 105.835 108 105.57C107.987 105.045 105.655 101.403 105.621 100.878C105.584 100.355 107.401 96.4235 107.342 95.9008C107.284 95.3781 104.64 91.9653 104.558 91.4458C104.476 90.9274 105.93 86.8482 105.824 86.3331C105.718 85.8179 102.795 82.6416 102.668 82.1308C102.539 81.62 103.613 77.4371 103.461 76.9338C103.31 76.4295 100.091 73.5329 99.9172 73.0361C99.7423 72.5393 100.451 68.2766 100.254 67.7884C100.057 67.2992 96.607 64.691 96.39 64.2115C96.1718 63.7319 96.4936 59.4325 96.255 58.9638C96.0163 58.495 92.3292 56.2152 92.07 55.7572C91.8118 55.2982 91.7416 50.9718 91.463 50.5257C91.1833 50.0797 87.3244 48.1411 87.0253 47.708C86.725 47.276 86.2628 42.9809 85.9453 42.5607C85.6256 42.1428 81.5918 40.5681 81.2538 40.1653C80.9168 39.7614 80.0906 35.5083 79.7353 35.1195C79.38 34.7307 75.2295 33.5179 74.858 33.1442C74.4854 32.7727 73.2715 28.6223 72.8838 28.267C72.496 27.9116 68.2419 27.0854 67.838 26.7485C67.4341 26.4115 65.8594 22.3766 65.4415 22.057C65.0224 21.7384 60.7284 21.2772 60.2942 20.977C59.8622 20.6767 57.9215 16.819 57.4765 16.5393C57.0315 16.2595 52.7029 16.1915 52.245 15.9312C51.7871 15.672 49.5072 11.986 49.0385 11.7462C48.5697 11.5065 44.2692 11.8294 43.7907 11.6112C43.3123 11.3931 40.7019 7.94247 40.2138 7.74591C39.7245 7.55043 35.4629 8.25783 34.9661 8.08287C34.4693 7.90899 31.5716 4.69059 31.0683 4.53939C30.5651 4.38819 26.3811 5.46171 25.8714 5.33319C25.3605 5.20359 22.1843 2.28327 21.6691 2.17743C21.1539 2.07159 17.0759 3.52527 16.5564 3.44319C16.0369 3.36219 12.6241 0.718357 12.1014 0.658957C11.5765 0.599557 7.6464 2.41503 7.12152 2.38047C6.59664 2.34591 2.95596 0.0120378 2.43 0.000157794Z" fill="black"/>
<path d="M0 15.2215V21.7015C22.856 21.7015 43.6396 30.5867 59.0792 45.09L53.0723 51.1142C52.1759 50.8788 51.178 51.1013 50.4738 51.8065L44.7368 57.5273C43.6795 58.5846 43.6795 60.2996 44.7368 61.358L46.6441 63.2653C47.7014 64.3226 49.4165 64.3226 50.4749 63.2653L56.1956 57.5283C56.9063 56.8166 57.1493 55.8317 56.9041 54.9299L62.9111 48.9229C77.4144 64.3604 86.2974 85.1429 86.2974 108H92.7785C92.7785 56.7626 51.2384 15.2215 0 15.2215Z" fill="#393D3F"/>
</svg>
